<svg fill="#000" xmlns="http://www.w3.org/2000/svg" viewBox="0 0 100 100"><path d="M89.691,30.825c0-3.601-2.93-6.529-6.531-6.529h-5.324l-1.547-9.793h-4.051L69.197,3.076l-3.039,11.427h-4.049   l-1.549,9.793H39.437l-1.546-9.793H33.84L30.799,3.076l-3.04,11.427h-4.051l-1.546,9.793h-5.325c-3.6,0-6.53,2.929-6.53,6.529   v27.563l4.309,0.891v2.262c0,19.51,15.873,35.383,35.383,35.383c19.51,0,35.383-15.873,35.383-35.383v-2.262l4.309-0.891V30.825z    M69.197,8.683l1.551,5.82H67.65L69.197,8.683z M63.34,15.944h11.719l1.318,8.352H62.021L63.34,15.944z M30.799,8.683l1.549,5.82   h-3.097L30.799,8.683z M24.94,15.944h11.718l1.318,8.352H23.622L24.94,15.944z M83.941,61.541   c0,18.715-15.227,33.941-33.942,33.941c-18.716,0-33.942-15.227-33.942-33.941v-1.965l33.796,6.98L50,66.586l33.942-7.01V61.541z    M88.25,57.217l-2.867,0.592l0,0L50,65.115l-35.383-7.307l0,0l-2.867-0.592V30.825c0-2.805,2.283-5.088,5.089-5.088h5.097h17.729   h20.669h17.73h5.096c2.807,0,5.09,2.283,5.09,5.088V57.217z"></path><path d="M37.392,82.355c0,1.465,1.19,2.654,2.654,2.654h19.908c1.465,0,2.654-1.189,2.654-2.654c0-1.463-1.189-2.654-2.654-2.654   H40.045C38.582,79.701,37.392,80.893,37.392,82.355z M61.166,82.355c0,0.668-0.545,1.213-1.213,1.213H40.045   c-0.669,0-1.212-0.545-1.212-1.213s0.543-1.213,1.212-1.213h19.908C60.621,81.143,61.166,81.688,61.166,82.355z"></path><polygon points="50.667,35.257 48.417,40.788 52.115,34.853 52.6,34.073 51.582,33.985 49.929,33.843 52.854,29.356 50.312,27.994    47.652,34.172 47.051,35.566 48.417,35.449  "></polygon><path d="M16.286,42.479v12.859v0.045l20.354,4.215l0.037-0.039l6.333,1.311l-0.038,0.037l6.826,1.414l0.037-0.037L50,62.318   l3.286-0.682l-0.057,0.055l30.482-6.309v-0.045V42.479v-0.044H16.286V42.479z M82.271,43.92v10.244l-24.559,5.084L73.039,43.92   H82.271z M66.162,43.92L49.367,60.715L45.918,60l16.08-16.08H66.162z M17.728,43.92h32.549L36.208,57.99l-18.48-3.826V43.92z"></path></svg>
