<svg xmlns="http://www.w3.org/2000/svg" viewBox="0 0 109.7 109.7">
<path fill="#000" d="M97.7,109.7H12c-6.6,0-12-5.4-12-12V12C0,5.4,5.4,0,12,0h85.7c6.6,0,12,5.4,12,12v85.7
	C109.7,104.3,104.3,109.7,97.7,109.7z"/>
<g fill="#65acde">
<path d="M94.4,35.8c0-3.6-2.9-6.5-6.5-6.5h-5.3L81,19.4H77L73.9,8l-3,11.4h-4l-1.5,9.8H44.2l-1.5-9.8h-4.1L35.5,8l-3,11.4h-4.1
	l-1.5,9.8h-5.3c-3.6,0-6.5,2.9-6.5,6.5v27.6l4.3,0.9v2.3c0,19.5,15.9,35.4,35.4,35.4S90.1,86,90.1,66.5v-2.3l4.3-0.9
	C94.4,63.3,94.4,35.8,94.4,35.8z M73.9,13.6l1.6,5.8h-3.1L73.9,13.6z M68.1,20.9h11.7l1.3,8.4H66.7L68.1,20.9z M35.5,13.6l1.5,5.8
	H34L35.5,13.6z M29.7,20.9h11.7l1.3,8.4H28.3L29.7,20.9z M88.7,66.5c0,18.7-15.2,33.9-33.9,33.9c-18.7,0-33.9-15.2-33.9-33.9v-2
	l33.8,7l0.1,0l33.9-7L88.7,66.5L88.7,66.5z M93,62.2l-2.9,0.6l0,0l-35.4,7.3l-35.4-7.3l0,0l-2.9-0.6V35.8c0-2.8,2.3-5.1,5.1-5.1h5.1
	h17.7h20.7h17.7h5.1c2.8,0,5.1,2.3,5.1,5.1V62.2z"/>
<path d="M42.1,87.3c0,1.5,1.2,2.7,2.7,2.7h19.9c1.5,0,2.7-1.2,2.7-2.7c0-1.5-1.2-2.7-2.7-2.7H44.8C43.3,84.6,42.1,85.8,42.1,87.3z
	 M65.9,87.3c0,0.7-0.5,1.2-1.2,1.2H44.8c-0.7,0-1.2-0.5-1.2-1.2s0.5-1.2,1.2-1.2h19.9C65.3,86.1,65.9,86.6,65.9,87.3z"/>
<polygon points="55.4,40.2 53.1,45.7 56.8,39.8 57.3,39 56.3,38.9 54.7,38.8 57.6,34.3 55,32.9 52.4,39.1 51.8,40.5 53.1,40.4 "/>
<path d="M21,47.4v12.9v0l20.4,4.2l0,0l6.3,1.3l0,0l6.8,1.4l0,0l0.2,0l3.3-0.7L58,66.6l30.5-6.3v0V47.4v0L21,47.4L21,47.4z M87,48.9
	v10.2l-24.6,5.1l15.3-15.3H87z M70.9,48.9L54.1,65.7l-3.4-0.7l16.1-16.1H70.9z M22.5,48.9H55L40.9,62.9l-18.5-3.8V48.9z"/>
	</g>
</svg>
