<svg xmlns="http://www.w3.org/2000/svg" viewBox="0 0 512 512">
<circle style="fill:#65B1FC;" cx="256" cy="256" r="256"/>
<path style="fill:#5C8EFF;" d="M287.608,510.057c107.934-13.292,195.06-93.761,218.284-198.297L256,61.868L152.077,301.313   l85.977,85.977l-30.248,42.966L287.608,510.057z"/>
<polygon style="fill:#555A66;" points="256,260.049 152.077,301.312 256,61.868 359.923,301.312   "/>
<polygon style="fill:#333940;" points="256,260.049 359.923,301.312 256,61.868   "/>
<circle style="fill:#555A66;" cx="256" cy="375.292" r="73.103"/>
<path style="fill:#333940;" d="M256,302.19c-0.032,0-0.063,0.002-0.095,0.002v146.2c0.032,0,0.063,0.002,0.095,0.002    c40.373,0,73.103-32.729,73.103-73.103S296.373,302.19,256,302.19z"/>
</svg>
