<svg xmlns="http://www.w3.org/2000/svg" xmlns:xlink="http://www.w3.org/1999/xlink" width="1200" height="1200" viewBox="0 0 1200 1200"><g><g transform="translate(600 600) scale(-0.69 0.69) rotate(45) translate(-600 -600)" style="fill:#39adff"><svg fill="#39adff" xmlns="http://www.w3.org/2000/svg" xmlns:xlink="http://www.w3.org/1999/xlink" version="1.1" x="0px" y="0px" viewBox="0 0 100 100" enable-background="new 0 0 100 100" xml:space="preserve"><path d="M79.6,48.4c0.601,0.6,0.601,1.5,0,2.1l-33,33c-8.144,8.144-21.589,8.405-30.2,0c-8.3-8.3-8.3-21.8,0-30.1l43-43  c0.6-0.6,1.5-0.6,2.1,0s0.6,1.5,0,2.1l-43,43c-7.386,7.386-7.012,18.989,0,25.8c7.1,7.101,18.7,7.101,25.9,0l33-33  C78,47.9,79,47.9,79.6,48.4z M31.5,54c8,0,14.5,6.5,14.5,14.5S39.5,83,31.5,83S17,76.5,17,68.5S23.5,54,31.5,54z M31.5,62  c-3.6,0-6.5,2.9-6.5,6.5s2.9,6.5,6.5,6.5s6.5-2.9,6.5-6.5S35.1,62,31.5,62z M87.4,28.4l-37,37c-0.6,0.6-0.6,1.5,0,2.1  c0.538,0.536,1.661,0.539,2.2,0l37-37c0.601-0.6,0.601-1.5,0-2.1C89,27.9,88,27.9,87.4,28.4z M54.4,48.6  c0.538,0.538,1.661,0.538,2.199,0l33-33c0.601-0.6,0.601-1.5,0-2.1c-0.6-0.6-1.5-0.6-2.1,0l-33,33C53.9,47,53.9,48,54.4,48.6z   M61.6,25.4c-0.6-0.6-1.5-0.6-2.1,0l-20,20c-0.6,0.6-0.6,1.5,0,2.1c0.53,0.53,1.656,0.543,2.2,0l20-20C62.1,27,62.1,26,61.6,25.4z   M71.6,17.6l5-5c0.601-0.6,0.601-1.5,0-2.1c-0.6-0.6-1.5-0.6-2.1,0l-5,5c-0.6,0.6-0.6,1.5,0,2.1  C69.824,18.085,71.017,18.183,71.6,17.6z M65.6,23.6l2-2c0.601-0.6,0.601-1.5,0-2.1c-0.6-0.6-1.5-0.6-2.1,0l-2,2  c-0.6,0.6-0.6,1.5,0,2.1C63.824,24.085,65.017,24.183,65.6,23.6z M50.4,50.4l-3,3c-0.6,0.6-0.6,1.5,0,2.1  c0.535,0.534,1.658,0.541,2.2,0l3-3c0.601-0.6,0.601-1.5,0-2.1C52,49.9,51,49.9,50.4,50.4z"></path></svg></g></g></svg>